0
SECTION
2
HEADER
9
$INSUNITS
70
4
9
$ACADVER
1
AC1014
9
$HANDSEED
5
FFFF
0
ENDSEC
0
SECTION
2
TABLES
0
TABLE
2
VPORT
5
8
100
AcDbSymbolTable
0
ENDTAB
0
TABLE
2
LTYPE
5
5
100
AcDbSymbolTable
0
LTYPE
5
14
100
AcDbSymbolTableRecord
100
AcDbLinetypeTableRecord
2
BYBLOCK
70
0
0
LTYPE
5
15
100
AcDbSymbolTableRecord
100
AcDbLinetypeTableRecord
2
BYLAYER
70
0
0
ENDTAB
0
TABLE
2
LAYER
5
2
100
AcDbSymbolTable
70
2
0
LAYER
5
50
100
AcDbSymbolTableRecord
100
AcDbLayerTableRecord
2
0
70
0
6
CONTINUOUS
0
ENDTAB
0
TABLE
2
STYLE
5
3
100
AcDbSymbolTable
70
1
0
STYLE
5
11
100
AcDbSymbolTableRecord
100
AcDbTextStyleTableRecord
2
STANDARD
70
0
0
ENDTAB
0
TABLE
2
VIEW
5
6
100
AcDbSymbolTable
70
0
0
ENDTAB
0
TABLE
2
UCS
5
7
100
AcDbSymbolTable
70
0
0
ENDTAB
0
TABLE
2
APPID
5
9
100
AcDbSymbolTable
70
2
0
APPID
5
12
100
AcDbSymbolTableRecord
100
AcDbRegAppTableRecord
2
ACAD
70
0
0
ENDTAB
0
TABLE
2
DIMSTYLE
5
A
100
AcDbSymbolTable
70
1
0
ENDTAB
0
TABLE
2
BLOCK_RECORD
5
1
100
AcDbSymbolTable
70
1
0
BLOCK_RECORD
5
1F
100
AcDbSymbolTableRecord
100
AcDbBlockTableRecord
2
*MODEL_SPACE
0
BLOCK_RECORD
5
1B
100
AcDbSymbolTableRecord
100
AcDbBlockTableRecord
2
*PAPER_SPACE
0
ENDTAB
0
ENDSEC
0
SECTION
2
BLOCKS
0
BLOCK
5
20
100
AcDbEntity
100
AcDbBlockBegin
2
*MODEL_SPACE
0
ENDBLK
5
21
100
AcDbEntity
100
AcDbBlockEnd
0
BLOCK
5
1C
100
AcDbEntity
100
AcDbBlockBegin
2
*PAPER_SPACE
0
ENDBLK
5
1D
100
AcDbEntity
100
AcDbBlockEnd
0
ENDSEC
0
SECTION
2
ENTITIES
0
LWPOLYLINE
5
100
100
AcDbEntity
8
0
100
AcDbPolyline
90
36
70
1
43
0.0
10
125.67279738339032
20
-24.068774970420776
42
0.4075832784524977
10
134.37968258835599
20
-11.635384580585054
10
124.5768480148331
20
43.949822309246983
42
0.36381904883610777
10
113.89496284910467
20
52.914891864800452
10
35.314779857154655
20
52.914892073715833
10
-12.415108424184215
20
61.262945643024466
42
0.41023500131174134
10
-22.599232610521032
20
54.118692036210199
10
-23.022046766622751
20
51.720159596948754
10
-24.1553842884069
20
45.292279184842421
10
-27.680207357475023
20
45.920313384487955
42
0.20034537403995067
10
-33.416923745742821
20
49.611831367627552
10
-52.058702508334669
20
52.914892073715833
10
-113.89290761363922
20
52.914892433857844
42
0.36387266830052456
10
-124.57684801483489
20
43.949822309236751
10
-134.37968258833351
20
-11.635384580448456
42
0.40758327845621539
10
-125.6727973833903
20
-24.06877497042078
10
-106.73755103235807
20
-27.404560883739492
42
0.092835322607877677
10
-103.05404747272587
20
-27.342742427909215
10
-95.714880911748168
20
-25.786141994118861
10
-80.155061477162633
20
-28.56330611223833
10
-80.15462779905269
20
-38.134404300657884
42
0.41058661247536155
10
-71.35464353252371
20
-46.938153700580791
10
-58.577498175258441
20
-46.938153700580784
10
-57.739007263745926
20
-49.103047803783745
42
0.23409048657034071
10
-51.875816012252344
20
-54.367893993282721
10
-25.664237994355553
20
-61.385915451513739
10
25.664237994355581
20
-61.385915451513739
10
51.875816012258994
20
-54.367893993280475
42
0.23409048657213904
10
57.739007263770581
20
-49.103047803720862
10
58.577498175258441
20
-46.93815370058077
10
71.354643532524307
20
-46.93815370058077
42
0.41058661247536282
10
80.15462779905269
20
-38.134404300657238
10
80.155061477162633
20
-28.56330611223833
10
95.714880911748168
20
-25.786141994118861
10
103.05404747283646
20
-27.342742427931842
42
0.09283532260041287
10
106.73755103217732
20
-27.404560883770198
0
SPLINE
5
101
100
AcDbEntity
8
0
100
AcDbSpline
70
0
71
3
72
40
73
36
74
0
42
0.000000001
43
0.0000000001
44
0.0000000001
40
0
40
0
40
0
40
0
40
0.042558613229265102
40
0.042558613229265102
40
0.084856264058976033
40
0.084856264058976033
40
0.12836194560025349
40
0.12836194560025349
40
0.17229575210591952
40
0.17229575210591952
40
0.21479944142506996
40
0.21479944142506996
40
0.25688796402218339
40
0.25688796402218339
40
0.30019019931332969
40
0.30019019931332969
40
0.34392725504810095
40
0.34392725504810095
40
0.38312498049130439
40
0.38312498049130439
40
0.41923830233202841
40
0.41923830233202841
40
0.45640179506370165
40
0.45640179506370165
40
0.49395156770844506
40
0.49395156770844506
40
0.5267593842060696
40
0.5267593842060696
40
0.55624561939293238
40
0.55624561939293238
40
0.58659325533633633
40
0.58659325533633633
40
0.60368896827658924
40
0.60368896827658924
40
0.62134616955055355
40
0.62134616955055355
40
0.62134616955055355
40
0.62134616955055355
10
-61.219004083658028
20
7.5264949813852233
30
0
10
-61.219004083651718
20
7.3846329372876731
30
0
10
-61.24586030772322
20
7.2451518526846996
30
0
10
-61.351817831954676
20
6.9834678397510714
30
0
10
-61.429390168693146
20
6.8643867305221491
30
0
10
-61.627387948847328
20
6.6590045091594057
30
0
10
-61.747418478105658
20
6.575350282855803
30
0
10
-62.014114006812292
20
6.4591737332877761
30
0
10
-62.157595397879419
20
6.4285495115355209
30
0
10
-62.445718032657339
20
6.4247084373002883
30
0
10
-62.586234217661179
20
6.4497077934435332
30
0
10
-62.849520369455036
20
6.5523844206666935
30
0
10
-62.969471441596603
20
6.6283295714625101
30
0
10
-63.177266845076268
20
6.8234754639275224
30
0
10
-63.262451125340533
20
6.9423254792326148
30
0
10
-63.382140295944623
20
7.2072784658636424
30
0
10
-63.41472163138954
20
7.3502960786572444
30
0
10
-63.42211911021024
20
7.627768256679647
30
0
10
-63.402808315678257
20
7.7701378630040434
30
0
10
-63.299882545992041
20
8.0444251847042061
30
0
10
-63.225571545556946
20
8.1652175672589618
30
0
10
-63.033302963350089
20
8.3753689686624551
30
0
10
-62.915655544711164
20
8.4620541478733315
30
0
10
-62.65248058244687
20
8.5852231077529595
30
0
10
-62.509937362224342
20
8.619752135484589
30
0
10
-62.235994801342393
20
8.6307084102789648
30
0
10
-62.092660147230269
20
8.6145369797678253
30
0
10
-61.81369046963426
20
8.513915980950566
30
0
10
-61.692066951695573
20
8.4412366205328979
30
0
10
-61.479595721946765
20
8.2518525840483328
30
0
10
-61.391432452768697
20
8.1354226454974867
30
0
10
-61.292996846400072
20
7.932218336828126
30
0
10
-61.265824606769392
20
7.8553308764023013
30
0
10
-61.228440588841281
20
7.694168483861537
30
0
10
-61.219004083661936
20
7.6105889253634809
30
0
10
-61.219004083658028
20
7.5264949813852233
30
0
0
SPLINE
5
102
100
AcDbEntity
8
0
100
AcDbSpline
70
0
71
3
72
40
73
36
74
0
42
0.000000001
43
0.0000000001
44
0.0000000001
40
0
40
0
40
0
40
0
40
0.042558626292113363
40
0.042558626292113363
40
0.084855998005852265
40
0.084855998005852265
40
0.12836169902993011
40
0.12836169902993011
40
0.17229688992773529
40
0.17229688992773529
40
0.21480392943434254
40
0.21480392943434254
40
0.25689492551260384
40
0.25689492551260384
40
0.30020089541743894
40
0.30020089541743894
40
0.3439419233540697
40
0.3439419233540697
40
0.38314489370943383
40
0.38314489370943383
40
0.41926489150721569
40
0.41926489150721569
40
0.4564350376980299
40
0.4564350376980299
40
0.49399041083204154
40
0.49399041083204154
40
0.52678600116458385
40
0.52678600116458385
40
0.55625065244202776
40
0.55625065244202776
40
0.58657519247671874
40
0.58657519247671874
40
0.60365772357852698
40
0.60365772357852698
40
0.62130129410926405
40
0.62130129410926405
40
0.62130129410926405
40
0.62130129410926405
10
46.99613905200416
20
-22.901212763039425
30
0
10
46.996139052010449
20
-23.043074850679801
30
0
10
46.969282811452601
20
-23.182555954635493
30
0
10
46.863325090042274
20
-23.444238941376877
30
0
10
46.785753040721438
20
-23.563318902078713
30
0
10
46.587755235242469
20
-23.768700012989996
30
0
10
46.467724422870916
20
-23.852353696614841
30
0
10
46.20102441652292
20
-23.968532230919596
30
0
10
46.057538368046202
20
-23.999157250304663
30
0
10
45.769399622127708
20
-24.0030001673294
30
0
10
45.628890876450505
20
-23.977999033570356
30
0
10
45.365609397286491
20
-23.875319622064662
30
0
10
45.245662004672973
20
-23.799374100470921
30
0
10
45.037870345521725
20
-23.604227312288813
30
0
10
44.952686775590074
20
-23.485375374806402
30
0
10
44.832999427375391
20
-23.220418770955607
30
0
10
44.800419314945245
20
-23.077399194389198
30
0
10
44.793025121693084
20
-22.799918184734477
30
0
10
44.812340189052044
20
-22.657550271147542
30
0
10
44.915266909134402
20
-22.383269368412133
30
0
10
44.989579774042916
20
-22.262476698970183
30
0
10
45.181851230586787
20
-22.052326367728639
30
0
10
45.299499690762765
20
-21.965642008440661
30
0
10
45.562672489920473
20
-21.842478221550405
30
0
10
45.705211961418399
20
-21.807951876018883
30
0
10
45.979079982575641
20
-21.797003615153415
30
0
10
46.122422783921529
20
-21.813152993871199
30
0
10
46.401452503022298
20
-21.913795274147038
30
0
10
46.523079121851715
20
-21.986476148478307
30
0
10
46.735551928410317
20
-22.175862759070153
30
0
10
46.823714335525999
20
-22.292292246677402
30
0
10
46.922148289860345
20
-22.495495326621278
30
0
10
46.949319837575743
20
-22.572381750451889
30
0
10
46.986702838392596
20
-22.733541834034561
30
0
10
46.996139052000302
20
-22.817120118249523
30
0
10
46.99613905200416
20
-22.901212763039425
30
0
0
SPLINE
5
103
100
AcDbEntity
8
0
100
AcDbSpline
70
0
71
3
72
43
73
39
74
0
42
0.000000001
43
0.0000000001
44
0.0000000001
40
0.65947825660942005
40
0.65947825660942005
40
0.65947825660942005
40
0.65947825660942005
40
0.70058716699188928
40
0.70058716699188928
40
0.72446551403471771
40
0.72446551403471771
40
0.74825626063207051
40
0.74825626063207051
40
0.74825626063207051
40
0.79194530321232293
40
0.79194530321232293
40
0.83660278444272262
40
0.83660278444272262
40
0.88037356598596206
40
0.88037356598596206
40
0.92444829120850347
40
0.92444829120850347
40
0.97031925173000211
40
0.97031925173000211
40
1.017197049627681
40
1.017197049627681
40
1.0631056008405908
40
1.0631056008405908
40
1.1091744779868342
40
1.1091744779868342
40
1.1571369206276589
40
1.1571369206276589
40
1.2061608715336614
40
1.2061608715336614
40
1.2541547265255273
40
1.2541547265255273
40
1.3021512812475673
40
1.3021512812475673
40
1.3521312661121054
40
1.3521312661121054
40
1.4032293638616249
40
1.4032293638616249
40
1.4077345172414906
40
1.4077345172414906
40
1.4077345172414906
40
1.4077345172414906
10
63.427500435690305
20
7.5279376207165427
30
0
10
63.427486258987997
20
7.4087221694100318
30
0
10
63.408379895774559
20
7.2796881840760612
30
0
10
63.332928151981839
20
7.0737932188407546
30
0
10
63.2970933474341
20
7.0019274541614385
30
0
10
63.211309554806249
20
6.868164702637678
30
0
10
63.16138338974671
20
6.8061884091100131
30
0
10
63.105306992789068
20
6.7501141510981952
30
0
10
63.002328967933714
20
6.6471400541773811
30
0
10
62.880507368514849
20
6.5659514500076845
30
0
10
62.611401648491096
20
6.4547123993705551
30
0
10
62.467061563827983
20
6.427190480252829
30
0
10
62.178972744435214
20
6.4287057252108006
30
0
10
62.03979865528882
20
6.456599681427809
30
0
10
61.778711094718837
20
6.56387363716909
30
0
10
61.660159195563722
20
6.6423547826655573
30
0
10
61.455728988679653
20
6.8414978682765089
30
0
10
61.372973122435425
20
6.9621751544952968
30
0
10
61.258197044012448
20
7.2295603769346055
30
0
10
61.228692066811817
20
7.3732880228241076
30
0
10
61.226372838846252
20
7.6615022937557242
30
0
10
61.252426906258599
20
7.8015582446663352
30
0
10
61.356411346611409
20
8.0642161601995532
30
0
10
61.433267653359863
20
8.1836437195540039
30
0
10
61.62956462923119
20
8.3905005199568095
30
0
10
61.749073898789774
20
8.4747988397030589
30
0
10
62.014733925087675
20
8.5931013602024997
30
0
10
62.158011471334483
20
8.6245692981739044
30
0
10
62.445967878086506
20
8.6307238005244002
30
0
10
62.587007807154727
20
8.6065207623779365
30
0
10
62.851220403629284
20
8.5058364646462898
30
0
10
62.971512543592311
20
8.4306062893554916
30
0
10
63.180757508721584
20
8.2371701713848271
30
0
10
63.266573627430205
20
8.1188494629391261
30
0
10
63.388366477426061
20
7.8549542415399713
30
0
10
63.421784232942706
20
7.7121477285921785
30
0
10
63.42727258435211
20
7.5539495035394824
30
0
10
63.427500493983267
20
7.5410025230699249
30
0
10
63.427500435690305
20
7.5279376207165427
30
0
0
SPLINE
5
104
100
AcDbEntity
8
0
100
AcDbSpline
70
0
71
3
72
40
73
36
74
0
42
0.000000001
43
0.0000000001
44
0.0000000001
40
0
40
0
40
0
40
0
40
0.042558626292122079
40
0.042558626292122079
40
0.08485599800597371
40
0.08485599800597371
40
0.12836169903017217
40
0.12836169903017217
40
0.1722968899279454
40
0.1722968899279454
40
0.21480392943491022
40
0.21480392943491022
40
0.25689492551395454
40
0.25689492551395454
40
0.3002008954195054
40
0.3002008954195054
40
0.34394192335685175
40
0.34394192335685175
40
0.38314489372074062
40
0.38314489372074062
40
0.41926489153203667
40
0.41926489153203667
40
0.45643503773662308
40
0.45643503773662308
40
0.49399041088453516
40
0.49399041088453516
40
0.52678600122089203
40
0.52678600122089203
40
0.55625065249603389
40
0.55625065249603389
40
0.58657519252828638
40
0.58657519252828638
40
0.60365772362874337
40
0.60365772362874337
40
0.62130129415810342
40
0.62130129415810342
40
0.62130129415810342
40
0.62130129415810342
10
-44.780300337487262
20
-22.902655400893597
30
0
10
-44.780300337480945
20
-23.044517488534005
30
0
10
-44.807156578038807
20
-23.183998592489608
30
0
10
-44.913114299449042
20
-23.445681579231199
30
0
10
-44.99068634876997
20
-23.564761539933311
30
0
10
-45.188684154249088
20
-23.770142650845052
30
0
10
-45.308714966620784
20
-23.853796334470179
30
0
10
-45.575414972968716
20
-23.969974868775044
30
0
10
-45.718901021445156
20
-24.000599888160142
30
0
10
-46.007039767364439
20
-24.004442805184823
30
0
10
-46.147548513040547
20
-23.979441671425178
30
0
10
-46.41082999220405
20
-23.876762259919786
30
0
10
-46.530777384817945
20
-23.800816738325857
30
0
10
-46.738569043969527
20
-23.605669950143454
30
0
10
-46.823752613901263
20
-23.486818012660979
30
0
10
-46.943439962116017
20
-23.221861408809982
30
0
10
-46.97602007454617
20
-23.078841832243484
30
0
10
-46.983414267799063
20
-22.80136082256233
30
0
10
-46.964099200430752
20
-22.658992908979052
30
0
10
-46.861172480356508
20
-22.384712006265683
30
0
10
-46.786859615447852
20
-22.263919336823605
30
0
10
-46.594588158903811
20
-22.053769005582385
30
0
10
-46.476939698728017
20
-21.967084646294776
30
0
10
-46.213766899570729
20
-21.843920859405237
30
0
10
-46.071227428073136
20
-21.809394513874079
30
0
10
-45.797359406948942
20
-21.798446253010248
30
0
10
-45.654016605599594
20
-21.814595631715967
30
0
10
-45.374986886469756
20
-21.915237912001807
30
0
10
-45.253360267640048
20
-21.987918786332969
30
0
10
-45.040887461081063
20
-22.177305396924666
30
0
10
-44.952725053965224
20
-22.293734884531773
30
0
10
-44.854291099630728
20
-22.496937964475634
30
0
10
-44.827119551915388
20
-22.573824388306161
30
0
10
-44.789736551098613
20
-22.734984471888747
30
0
10
-44.780300337490999
20
-22.818562756103702
30
0
10
-44.780300337487262
20
-22.902655400893597
30
0
0
CIRCLE
5
105
100
AcDbEntity
8
0
100
AcDbCircle
10
129.48835840242435
20
-17.475390644221513
30
0
40
1.1250000000000071
210
0
220
-0
230
1
0
CIRCLE
5
106
100
AcDbEntity
8
0
100
AcDbCircle
10
-129.48835840242435
20
-17.475390644221509
30
0
40
1.1250000000000071
210
0
220
-0
230
1
0
CIRCLE
5
107
100
AcDbEntity
8
0
100
AcDbCircle
10
-76.480394089200161
20
-25.486574081055213
30
0
40
1.1249999999999982
210
0
220
-0
230
1
0
CIRCLE
5
108
100
AcDbEntity
8
0
100
AcDbCircle
10
-52.918370820335092
20
-49.631363515586898
30
0
40
1.1249999999999982
210
0
220
-0
230
1
0
CIRCLE
5
109
100
AcDbEntity
8
0
100
AcDbCircle
10
52.918370820335092
20
-49.631363515586898
30
0
40
1.1249999999999982
210
0
220
-0
230
1
0
CIRCLE
5
110
100
AcDbEntity
8
0
100
AcDbCircle
10
76.480394089200161
20
-25.486574081055203
30
0
40
1.1249999999999982
210
0
220
-0
230
1
0
CIRCLE
5
111
100
AcDbEntity
8
0
100
AcDbCircle
10
-118.45606375537866
20
47.503011416751079
30
0
40
1.1250000000000071
210
0
220
-0
230
1
0
CIRCLE
5
112
100
AcDbEntity
8
0
100
AcDbCircle
10
-10.642136216766318
20
57.145923713118279
30
0
40
1.1250000000000004
210
0
220
-0
230
1
0
CIRCLE
5
113
100
AcDbEntity
8
0
100
AcDbCircle
10
118.45606375537866
20
47.503011416751079
30
0
40
1.1250000000000071
210
0
220
-0
230
1
0
CIRCLE
5
114
100
AcDbEntity
8
0
100
AcDbCircle
10
-64.02756039067107
20
49.164892108571024
30
0
40
1.1249999999999982
210
0
220
-0
230
1
0
CIRCLE
5
115
100
AcDbEntity
8
0
100
AcDbCircle
10
34.989308928601858
20
49.164892073715833
30
0
40
1.1249999999999982
210
0
220
-0
230
1
0
SPLINE
5
116
100
AcDbEntity
8
0
100
AcDbSpline
70
0
71
3
72
40
73
36
74
0
42
0.000000001
43
0.0000000001
44
0.0000000001
40
0
40
0
40
0
40
0
40
0.042558613229336156
40
0.042558613229336156
40
0.084856264059092495
40
0.084856264059092495
40
0.12836194560034406
40
0.12836194560034406
40
0.17229575210594289
40
0.17229575210594289
40
0.21479915412943787
40
0.21479915412943787
40
0.25688615264854697
40
0.25688615264854697
40
0.30018721461242998
40
0.30018721461242998
40
0.34392477201111327
40
0.34392477201111327
40
0.38312281396361308
40
0.38312281396361308
40
0.41923459497239729
40
0.41923459497239729
40
0.45639517042747424
40
0.45639517042747424
40
0.49394167192223631
40
0.49394167192223631
40
0.52674653454107567
40
0.52674653454107567
40
0.55622954838046423
40
0.55622954838046423
40
0.58657386846950399
40
0.58657386846950399
40
0.60366764943797824
40
0.60366764943797824
40
0.62132285427433165
40
0.62132285427433165
40
0.62132285427433165
40
0.62132285427433165
10
23.220523109743752
20
16.130384109273237
30
0
10
23.220523109750062
20
15.98852206517545
30
0
10
23.193666885678503
20
15.849040980572283
30
0
10
23.087709361446937
20
15.587356967638414
30
0
10
23.010137024708417
20
15.468275858409406
30
0
10
22.812139244554174
20
15.262893637046727
30
0
10
22.692108715295937
20
15.179239410743259
30
0
10
22.425413186589612
20
15.063062861175558
30
0
10
22.281931795522748
20
15.032438639423461
30
0
10
21.993810118389515
20
15.028597577955116
30
0
10
21.853294879540282
20
15.053596583432277
30
0
10
21.590014645492101
20
15.156272378539837
30
0
10
21.470068554933132
20
15.232215262163392
30
0
10
21.262280450888895
20
15.427356126732478
30
0
10
21.177099153384084
20
15.546203362392198
30
0
10
21.057410407260249
20
15.811154434161153
30
0
10
21.024828427045669
20
15.954174036332173
30
0
10
21.017428870537024
20
16.231649278365381
30
0
10
21.036737942647971
20
16.374025990972235
30
0
10
21.139666663956159
20
16.648324565069149
30
0
10
21.213978060983756
20
16.769118857289499
30
0
10
21.406246064385694
20
16.979268697092039
30
0
10
21.52389069195339
20
17.065951316958753
30
0
10
21.787059193661232
20
17.189115274856562
30
0
10
21.929597803822833
20
17.223642009420857
30
0
10
22.203531380358399
20
17.234597121563077
30
0
10
22.346865930049397
20
17.21842677484721
30
0
10
22.625838297177268
20
17.117804303502449
30
0
10
22.747461713306226
20
17.045124739659961
30
0
10
22.959932657704194
20
16.855740342798391
30
0
10
23.048095744703904
20
16.739310251422932
30
0
10
23.146530889523532
20
16.536106034495525
30
0
10
23.173702931975448
20
16.45921882258639
30
0
10
23.211086674731526
20
16.298056992086703
30
0
10
23.220523109739936
20
16.214477740585131
30
0
10
23.220523109743752
20
16.130384109273237
30
0
0
SPLINE
5
117
100
AcDbEntity
8
0
100
AcDbSpline
70
0
71
3
72
40
73
36
74
0
42
0.000000001
43
0.0000000001
44
0.0000000001
40
0
40
0
40
0
40
0
40
0.04256035327008325
40
0.04256035327008325
40
0.084858209137566185
40
0.084858209137566185
40
0.12836286861906282
40
0.12836286861906282
40
0.17229675656460749
40
0.17229675656460749
40
0.21480375459965245
40
0.21480375459965245
40
0.25689486217248991
40
0.25689486217248991
40
0.30020093851421842
40
0.30020093851421842
40
0.34394206614350553
40
0.34394206614350553
40
0.38314629593877247
40
0.38314629593877247
40
0.41926840716294345
40
0.41926840716294345
40
0.4564407232315783
40
0.4564407232315783
40
0.49399827997723494
40
0.49399827997723494
40
0.52679484665827236
40
0.52679484665827236
40
0.55625913453062248
40
0.55625913453062248
40
0.58658349165539803
40
0.58658349165539803
40
0.60366650859884752
40
0.60366650859884752
40
0.62131064218747023
40
0.62131064218747023
40
0.62131064218747023
40
0.62131064218747023
10
-96.63355214421243
20
26.040588840455516
30
0
10
-96.633552144206135
20
25.898720996221908
30
0
10
-96.660409390154939
20
25.759234013443091
30
0
10
-96.766370820000276
20
25.497544705728473
30
0
10
-96.843944097713134
20
25.378463705094696
30
0
10
-97.041942579307161
20
25.173086085723185
30
0
10
-97.161971011878421
20
25.089436011121297
30
0
10
-97.428665320110341
20
24.973264396812979
30
0
10
-97.572147147860747
20
24.94264264554381
30
0
10
-97.860281321389124
20
24.938802733603413
30
0
10
-98.000789273182562
20
24.963805221093899
30
0
10
-98.264069470235484
20
25.066486994749457
30
0
10
-98.384016234581523
20
25.142433711311384
30
0
10
-98.591806143165655
20
25.337582598415015
30
0
10
-98.676988600489864
20
25.456435408173697
30
0
10
-98.79667338551242
20
25.721393302356628
30
0
10
-98.829252066923061
20
25.864413224347444
30
0
10
-98.836643658593772
20
26.141898319466886
30
0
10
-98.817325825992526
20
26.284265142680493
30
0
10
-98.71439787544179
20
26.558541474220974
30
0
10
-98.640083813467356
20
26.679333529652411
30
0
10
-98.447810245093564
20
26.889482144897663
30
0
10
-98.330160898137422
20
26.976165411016893
30
0
10
-98.066986779978748
20
27.099326661459084
30
0
10
-97.924446949457348
20
27.133851584674296
30
0
10
-97.650582354516388
20
27.144797034780787
30
0
10
-97.507240280023694
20
27.128647575677562
30
0
10
-97.228215223890757
20
27.028002658507194
30
0
10
-97.106594083395237
20
26.955322733127769
30
0
10
-96.894130465469516
20
26.765938959610445
30
0
10
-96.805972352087494
20
26.649511522311315
30
0
10
-96.707541602266502
20
26.446310632152027
30
0
10
-96.68037050948891
20
26.369423403792478
30
0
10
-96.642988147334847
20
26.20826165008889
30
0
10
-96.633552144216154
20
26.124682385624958
30
0
10
-96.63355214421243
20
26.040588840455516
30
0
0
SPLINE
5
118
100
AcDbEntity
8
0
100
AcDbSpline
70
0
71
3
72
40
73
36
74
0
42
0.000000001
43
0.0000000001
44
0.0000000001
40
0
40
0
40
0
40
0
40
0.042562771227557715
40
0.042562771227557715
40
0.0848600811150719
40
0.0848600811150719
40
0.12836344974411523
40
0.12836344974411523
40
0.17229756151177708
40
0.17229756151177708
40
0.21480627511668776
40
0.21480627511668776
40
0.25689765212981891
40
0.25689765212981891
40
0.30020273430486683
40
0.30020273430486683
40
0.34394386565579671
40
0.34394386565579671
40
0.38318912327571292
40
0.38318912327571292
40
0.41937769202403768
40
0.41937769202403768
40
0.45661915513726647
40
0.45661915513726647
40
0.49424532924752451
40
0.49424532924752451
40
0.52710302789795127
40
0.52710302789795127
40
0.55662500025648187
40
0.55662500025648187
40
0.58700966563089629
40
0.58700966563089629
40
0.60412537845102443
40
0.60412537845102443
40
0.62180299321197163
40
0.62180299321197163
40
0.62180299321197163
40
0.62180299321197163
10
105.70314994176904
20
-11.626642552447244
30
0
10
105.70314994177534
20
-11.768518456539104
30
0
10
105.67629154802768
20
-11.908013086966459
30
0
10
105.57032515143322
20
-12.169706853452674
30
0
10
105.49275204779752
20
-12.288784968808045
30
0
10
105.29475516088419
20
-12.494155140492559
30
0
10
105.17472954227225
20
-12.577800613853027
30
0
10
104.9080377940696
20
-12.693968301515808
30
0
10
104.76455497444564
20
-12.724588908238557
30
0
10
104.4764146413699
20
-12.728428593291808
30
0
10
104.33590077727105
20
-12.703425078214439
30
0
10
104.07261516869688
20
-12.60073934260708
30
0
10
103.95266834091181
20
-12.524791538269929
30
0
10
103.74488292118303
20
-12.329641647723994
30
0
10
103.65970464687054
20
-12.210790807420215
30
0
10
103.5400251077091
20
-11.945834197749763
30
0
10
103.50744906887213
20
-11.802814090743354
30
0
10
103.50005536024584
20
-11.525191531801743
30
0
10
103.51942147664502
20
-11.382845928046246
30
0
10
103.62231367854959
20
-11.10868127697036
30
0
10
103.69663142617978
20
-10.98788871686409
30
0
10
103.88891277797057
20
-10.777738260865604
30
0
10
104.00656771008332
20
-10.691053670755657
30
0
10
104.26974886595524
20
-10.567896002531633
30
0
10
104.4122892629901
20
-10.533374219742333
30
0
10
104.68615893221015
20
-10.522436553136206
30
0
10
104.82949230588932
20
-10.538593128818212
30
0
10
105.1084992691888
20
-10.63923920359197
30
0
10
105.23011800567836
20
-10.711921732351364
30
0
10
105.44258026786548
20
-10.901310931559456
30
0
10
105.53073903833652
20
-11.017743044009391
30
0
10
105.62916617226109
20
-11.220944958101992
30
0
10
105.6563352267007
20
-11.297828584009109
30
0
10
105.69371454073911
20
-11.458981001563286
30
0
10
105.70314994176522
20
-11.542554670601959
30
0
10
105.70314994176904
20
-11.626642552447244
30
0
0
SPLINE
5
119
100
AcDbEntity
8
0
100
AcDbSpline
70
0
71
3
72
40
73
36
74
0
42
0.000000001
43
0.0000000001
44
0.0000000001
40
0
40
0
40
0
40
0
40
0.042562771227644118
40
0.042562771227644118
40
0.084860081115192498
40
0.084860081115192498
40
0.12836344974419223
40
0.12836344974419223
40
0.17229756151175471
40
0.17229756151175471
40
0.21480627511573855
40
0.21480627511573855
40
0.25689765212776972
40
0.25689765212776972
40
0.30020273430168465
40
0.30020273430168465
40
0.34394386565156038
40
0.34394386565156038
40
0.38318912328759441
40
0.38318912328759441
40
0.41937769206294134
40
0.41937769206294134
40
0.45661915520391483
40
0.45661915520391483
40
0.49424532934216009
40
0.49424532934216009
40
0.52710302802102216
40
0.52710302802102216
40
0.55662500040792728
40
0.55662500040792728
40
0.58700966581148095
40
0.58700966581148095
40
0.6041253786480183
40
0.6041253786480183
40
0.62180299342591316
40
0.62180299342591316
40
0.62180299342591316
40
0.62180299342591316
10
98.843706446783699
20
26.040718040313369
30
0
10
98.843706446790151
20
25.898842136221223
30
0
10
98.816848053042548
20
25.759347505793905
30
0
10
98.710881656448493
20
25.497653739307879
30
0
10
98.633308552813119
20
25.378575623952614
30
0
10
98.435311665900088
20
25.173205452268029
30
0
10
98.315286047288424
20
25.08955997890763
30
0
10
98.048594299086488
20
24.973392291244949
30
0
10
97.905111479463031
20
24.942771684522157
30
0
10
97.616971146390767
20
24.938931999468757
30
0
10
97.476457282290312
20
24.963935514544922
30
0
10
97.213171673715294
20
25.066621250151421
30
0
10
97.093224845930024
20
25.142569054488106
30
0
10
96.88543942620089
20
25.337718945032851
30
0
10
96.800261151887895
20
25.45656978533621
30
0
10
96.680581612725234
20
25.721526395006347
30
0
10
96.648005573887602
20
25.864546502012903
30
0
10
96.640611865258478
20
26.142169061011824
30
0
10
96.659977981677287
20
26.284514664759588
30
0
10
96.762870183563422
20
26.558679315788154
30
0
10
96.837187931193412
20
26.679471875894755
30
0
10
97.02946928298411
20
26.889622331893893
30
0
10
97.147124215096738
20
26.97630692200406
30
0
10
97.410305370968388
20
27.099464590228465
30
0
10
97.552845768003067
20
27.133986373017965
30
0
10
97.826715437238434
20
27.144924039625138
30
0
10
97.970048810915983
20
27.128767463937585
30
0
10
98.249055774202262
20
27.028121389169048
30
0
10
98.370674510692254
20
26.95543886040964
30
0
10
98.58313677287984
20
26.766049661201528
30
0
10
98.671295543351079
20
26.649617548751657
30
0
10
98.769722677275794
20
26.446415634659065
30
0
10
98.79689173171549
20
26.369532008751865
30
0
10
98.834271045753894
20
26.208379591197499
30
0
10
98.843706446779976
20
26.124805922158743
30
0
10
98.843706446783699
20
26.040718040313369
30
0
0
SPLINE
5
120
100
AcDbEntity
8
0
100
AcDbSpline
70
0
71
3
72
43
73
39
74
0
42
0.000000001
43
0.0000000001
44
0.0000000001
40
0.65947685479996088
40
0.65947685479996088
40
0.65947685479996088
40
0.65947685479996088
40
0.70058662796332904
40
0.70058662796332904
40
0.72446417643619287
40
0.72446417643619287
40
0.74825409089361794
40
0.74825409089361794
40
0.74825409089361794
40
0.79194206709871828
40
0.79194206709871828
40
0.83659821602900653
40
0.83659821602900653
40
0.88036984320084699
40
0.88036984320084699
40
0.92444241745641975
40
0.92444241745641975
40
0.97031068247789198
40
0.97031068247789198
40
1.0171876410675429
40
1.0171876410675429
40
1.0630971996950431
40
1.0630971996950431
40
1.1091654844344032
40
1.1091654844344032
40
1.1571262039166452
40
1.1571262039166452
40
1.2061498508837465
40
1.2061498508837465
40
1.2541462838227022
40
1.2541462838227022
40
1.3021426865845269
40
1.3021426865845269
40
1.3521232030020096
40
1.3521232030020096
40
1.4032240851858249
40
1.4032240851858249
40
1.4077309456935789
40
1.4077309456935789
40
1.4077309456935789
40
1.4077309456935789
10
-21.001820663109008
20
16.131568358860875
30
0
10
-21.001834845963021
20
16.012354163990544
30
0
10
-21.020940005224176
20
15.883317950689159
30
0
10
-21.096390723481598
20
15.677421081170284
30
0
10
-21.132223551820587
20
15.60555709832985
30
0
10
-21.218002369929998
20
15.471797604753926
30
0
10
-21.267925628876192
20
15.409822600318448
30
0
10
-21.323998994995321
20
15.353749234192957
30
0
10
-21.426972542425954
20
15.250775686750639
30
0
10
-21.548789085568721
20
15.169587376593654
30
0
10
-21.817884182710205
20
15.058347535231768
30
0
10
-21.962213856009242
20
15.030824039705475
30
0
10
-22.250313254475572
20
15.032333500367724
30
0
10
-22.389495706757877
20
15.060226009876478
30
0
10
-22.650589736108198
20
15.167499759659442
30
0
10
-22.769139946799612
20
15.245978300373642
30
0
10
-22.973566449268482
20
15.445115346005537
30
0
10
-23.056320024048624
20
15.565788111390388
30
0
10
-23.171097734631367
20
15.833168259973798
30
0
10
-23.200604478046877
20
15.97689633001985
30
0
10
-23.202929381095828
20
16.265116544316221
30
0
10
-23.176876933036844
20
16.405179918951426
30
0
10
-23.072893536061581
20
16.667845570919905
30
0
10
-22.996038535252911
20
16.787274350504575
30
0
10
-22.799745002124887
20
16.994130250560136
30
0
10
-22.680239458241243
20
17.078426590035285
30
0
10
-22.41458330686401
20
17.196729309285658
30
0
10
-22.271306147489156
20
17.228197486566273
30
0
10
-21.983341896484852
20
17.234356473915412
30
0
10
-21.842300793428613
20
17.210154118775868
30
0
10
-21.578089465754186
20
17.109469798972267
30
0
10
-21.457802155110549
20
17.034242128190876
30
0
10
-21.24856398441198
20
16.840811683310349
30
0
10
-21.162750682154797
20
16.722494012922404
30
0
10
-21.040957532483283
20
16.458601266398624
30
0
10
-21.007538847947945
20
16.315792970314945
30
0
10
-21.002048662896922
20
16.157589192597872
30
0
10
-21.001820604684227
20
16.144637799825983
30
0
10
-21.001820663109008
20
16.131568358860868
30
0
0
SPLINE
5
121
100
AcDbEntity
8
0
100
AcDbSpline
70
0
71
3
72
40
73
36
74
0
42
0.000000001
43
0.0000000001
44
0.0000000001
40
0
40
0
40
0
40
0
40
0.042560353269959494
40
0.042560353269959494
40
0.084858209137469887
40
0.084858209137469887
40
0.12836286861902155
40
0.12836286861902155
40
0.17229675656445453
40
0.17229675656445453
40
0.21480305238975594
40
0.21480305238975594
40
0.25689179301077247
40
0.25689179301077247
40
0.30019463291563059
40
0.30019463291563059
40
0.34393397251920582
40
0.34393397251920582
40
0.38313566608420924
40
0.38313566608420924
40
0.41925248394116693
40
0.41925248394116693
40
0.45641823381022473
40
0.45641823381022473
40
0.49396994819206202
40
0.49396994819206202
40
0.52676939837859771
40
0.52676939837859771
40
0.55623982946761186
40
0.55623982946761186
40
0.58657050862414195
40
0.58657050862414195
40
0.60365700425751712
40
0.60365700425751712
40
0.62130472948985216
40
0.62130472948985216
40
0.62130472948985216
40
0.62130472948985216
10
-103.49114389699145
20
-11.627180858008721
30
0
10
-103.49114389698514
20
-11.769048702241919
30
0
10
-103.51800114293384
20
-11.908535685020409
30
0
10
-103.62396257277894
20
-12.170224992735008
30
0
10
-103.70153585049178
20
-12.289305993369075
30
0
10
-103.8995343320862
20
-12.494683612741477
30
0
10
-104.01956276465779
20
-12.578333687343775
30
0
10
-104.28625707288985
20
-12.694505301652427
30
0
10
-104.42973890064009
20
-12.72512705292173
30
0
10
-104.71787073348663
20
-12.728966933668243
30
0
10
-104.85838616683239
20
-12.703965433818388
30
0
10
-105.12166852167574
20
-12.601283785634667
30
0
10
-105.24161350875673
20
-12.525338803834046
30
0
10
-105.44939853879355
20
-12.330194253870772
30
0
10
-105.53457788273533
20
-12.211345486492553
30
0
10
-105.65426212831953
20
-11.946392148653144
30
0
10
-105.68684159584006
20
-11.80337193961779
30
0
10
-105.69423658431259
20
-11.525889523599471
30
0
10
-105.67492265667875
20
-11.383514725875195
30
0
10
-105.57199177390599
20
-11.109224177989638
30
0
10
-105.4976782749067
20
-10.988430964216144
30
0
10
-105.30540656331651
20
-10.77828413793927
30
0
10
-105.18776037863374
20
-10.691603437700826
30
0
10
-104.92458956054593
20
-10.568443933572464
30
0
10
-104.78205031958143
20
-10.533919696467379
30
0
10
-104.50815520226661
20
-10.522970817949997
30
0
10
-104.36481210703786
20
-10.539128967815572
30
0
10
-104.085804942327
20
-10.639768081255541
30
0
10
-103.96418393350723
20
-10.712448269635948
30
0
10
-103.75172068455343
20
-10.901832509068326
30
0
10
-103.6635628067113
20
-11.018260143959102
30
0
10
-103.56513265362693
20
-11.221460915496843
30
0
10
-103.53796181578016
20
-11.298347822539267
30
0
10
-103.50057980939246
20
-11.459508849559121
30
0
10
-103.49114389699535
20
-11.543087717095711
30
0
10
-103.49114389699145
20
-11.627180858008721
30
0
0
ENDSEC
0
SECTION
2
OBJECTS
0
DICTIONARY
5
C
100
AcDbDictionary
3
ACAD_GROUP
350
D
3
ACAD_MLINESTYLE
350
17
0
DICTIONARY
5
D
100
AcDbDictionary
0
DICTIONARY
5
1A
330
C
100
AcDbDictionary
0
DICTIONARY
5
17
100
AcDbDictionary
0
ENDSEC
0
EOF
