0
SECTION
2
HEADER
9
$INSUNITS
70
4
9
$ACADVER
1
AC1014
9
$HANDSEED
5
FFFF
0
ENDSEC
0
SECTION
2
TABLES
0
TABLE
2
VPORT
5
8
100
AcDbSymbolTable
0
ENDTAB
0
TABLE
2
LTYPE
5
5
100
AcDbSymbolTable
0
LTYPE
5
14
100
AcDbSymbolTableRecord
100
AcDbLinetypeTableRecord
2
BYBLOCK
70
0
0
LTYPE
5
15
100
AcDbSymbolTableRecord
100
AcDbLinetypeTableRecord
2
BYLAYER
70
0
0
ENDTAB
0
TABLE
2
LAYER
5
2
100
AcDbSymbolTable
70
2
0
LAYER
5
50
100
AcDbSymbolTableRecord
100
AcDbLayerTableRecord
2
0
70
0
6
CONTINUOUS
0
ENDTAB
0
TABLE
2
STYLE
5
3
100
AcDbSymbolTable
70
1
0
STYLE
5
11
100
AcDbSymbolTableRecord
100
AcDbTextStyleTableRecord
2
STANDARD
70
0
0
ENDTAB
0
TABLE
2
VIEW
5
6
100
AcDbSymbolTable
70
0
0
ENDTAB
0
TABLE
2
UCS
5
7
100
AcDbSymbolTable
70
0
0
ENDTAB
0
TABLE
2
APPID
5
9
100
AcDbSymbolTable
70
2
0
APPID
5
12
100
AcDbSymbolTableRecord
100
AcDbRegAppTableRecord
2
ACAD
70
0
0
ENDTAB
0
TABLE
2
DIMSTYLE
5
A
100
AcDbSymbolTable
70
1
0
ENDTAB
0
TABLE
2
BLOCK_RECORD
5
1
100
AcDbSymbolTable
70
1
0
BLOCK_RECORD
5
1F
100
AcDbSymbolTableRecord
100
AcDbBlockTableRecord
2
*MODEL_SPACE
0
BLOCK_RECORD
5
1B
100
AcDbSymbolTableRecord
100
AcDbBlockTableRecord
2
*PAPER_SPACE
0
ENDTAB
0
ENDSEC
0
SECTION
2
BLOCKS
0
BLOCK
5
20
100
AcDbEntity
100
AcDbBlockBegin
2
*MODEL_SPACE
0
ENDBLK
5
21
100
AcDbEntity
100
AcDbBlockEnd
0
BLOCK
5
1C
100
AcDbEntity
100
AcDbBlockBegin
2
*PAPER_SPACE
0
ENDBLK
5
1D
100
AcDbEntity
100
AcDbBlockEnd
0
ENDSEC
0
SECTION
2
ENTITIES
0
CIRCLE
5
100
100
AcDbEntity
8
0
100
AcDbCircle
10
-10.642136216766318
20
57.145923713118279
30
0
40
1.875
210
0
220
-0
230
1
0
CIRCLE
5
101
100
AcDbEntity
8
0
100
AcDbCircle
10
-129.48835840242435
20
-17.475390644221509
30
0
40
1.875
210
0
220
-0
230
1
0
CIRCLE
5
102
100
AcDbEntity
8
0
100
AcDbCircle
10
-76.480394089200161
20
-25.486574081055213
30
0
40
1.875
210
0
220
-0
230
1
0
CIRCLE
5
103
100
AcDbEntity
8
0
100
AcDbCircle
10
-64.02756039067107
20
49.164892108571024
30
0
40
1.875
210
0
220
-0
230
1
0
CIRCLE
5
104
100
AcDbEntity
8
0
100
AcDbCircle
10
129.48835840242435
20
-17.475390644221513
30
0
40
1.875
210
0
220
-0
230
1
0
CIRCLE
5
105
100
AcDbEntity
8
0
100
AcDbCircle
10
118.45606375537866
20
47.503011416751079
30
0
40
1.875
210
0
220
-0
230
1
0
CIRCLE
5
106
100
AcDbEntity
8
0
100
AcDbCircle
10
52.918370820335092
20
-49.631363515586898
30
0
40
1.875
210
0
220
-0
230
1
0
CIRCLE
5
107
100
AcDbEntity
8
0
100
AcDbCircle
10
34.989308928601858
20
49.164892073715833
30
0
40
1.875
210
0
220
-0
230
1
0
CIRCLE
5
108
100
AcDbEntity
8
0
100
AcDbCircle
10
76.480394089200161
20
-25.486574081055203
30
0
40
1.875
210
0
220
-0
230
1
0
CIRCLE
5
109
100
AcDbEntity
8
0
100
AcDbCircle
10
-52.918370820335092
20
-49.631363515586898
30
0
40
1.875
210
0
220
-0
230
1
0
CIRCLE
5
110
100
AcDbEntity
8
0
100
AcDbCircle
10
-118.45606375537866
20
47.503011416751079
30
0
40
1.875
210
0
220
-0
230
1
0
LWPOLYLINE
5
111
100
AcDbEntity
8
0
100
AcDbPolyline
90
43
70
1
43
0.0
10
-28.046795000000003
20
-51.871378451513749
10
-48.234743000000002
20
-45.463178451513748
10
-61.711278
20
-37.369584451513724
10
-73.661434000000014
20
-37.369584451513724
10
-73.661434000000014
20
-16.443714451513745
10
-84.679727999999997
20
-14.501675451513748
10
-85.287475000000001
20
-17.949192451513728
10
-104.04799700000001
20
-14.639258451513722
10
-104.65574500000001
20
-18.086775451513738
10
-125.23818500000003
20
-14.456696451513725
10
-114.993002
20
43.64573054848627
10
-96.23248000000001
20
40.337913548486277
10
-95.624733000000006
20
43.784636548486269
10
-76.864211000000012
20
40.47655454848627
10
-76.256464000000008
20
43.923542548486267
10
-57.498323000000006
20
40.615990548486245
10
-56.890575999999996
20
44.063506548486231
10
-36.307870000000008
20
40.434221548486278
10
-36.915881999999996
20
36.986705548486263
10
-18.152767000000001
20
33.67835954848627
10
-18.760540000000002
20
30.231372548486263
10
-0.071570642107403604
20
26.936701708002687
10
18.616993999999998
20
30.231636548486257
10
18.009219999999999
20
33.67835954848627
10
36.770748000000005
20
36.986440548486257
10
36.163530000000002
20
40.432105548486241
10
56.744913000000011
20
44.061390548486266
10
57.352395000000001
20
40.61546154848628
10
76.11291700000001
20
43.923542548486232
10
76.720663999999999
20
40.47655454848627
10
95.481980000000007
20
43.784636548486269
10
96.089728000000008
20
40.337913548486277
10
114.84972100000002
20
43.64573054848627
10
125.09543299999999
20
-14.456696451513729
10
104.51272700000001
20
-18.086775451513738
10
103.90498000000002
20
-14.63925845151374
10
85.144723000000013
20
-17.949192451513746
10
84.536975000000012
20
-14.50167545151373
10
73.514712000000003
20
-16.443714451513745
10
73.514712000000003
20
-37.366938451513732
10
61.564820999999995
20
-37.366938451513747
10
48.087227999999996
20
-45.463178451513748
10
27.900074
20
-51.874024451513741
0
LWPOLYLINE
5
112
100
AcDbEntity
8
0
100
AcDbPolyline
90
36
70
1
43
0.0
10
125.67279738339032
20
-24.068774970420776
42
0.4075832784524977
10
134.37968258835599
20
-11.635384580585054
10
124.5768480148331
20
43.949822309246983
42
0.36381904883610777
10
113.89496284910467
20
52.914891864800452
10
35.314779857154655
20
52.914892073715833
10
-12.415108424184215
20
61.262945643024466
42
0.41023500131174134
10
-22.599232610521032
20
54.118692036210199
10
-23.022046766622751
20
51.720159596948754
10
-24.1553842884069
20
45.292279184842421
10
-27.680207357475023
20
45.920313384487955
42
0.20034537403995067
10
-33.416923745742821
20
49.611831367627552
10
-52.058702508334669
20
52.914892073715833
10
-113.89290761363922
20
52.914892433857844
42
0.36387266830052456
10
-124.57684801483489
20
43.949822309236751
10
-134.37968258833351
20
-11.635384580448456
42
0.40758327845621539
10
-125.6727973833903
20
-24.06877497042078
10
-106.73755103235807
20
-27.404560883739492
42
0.092835322607877677
10
-103.05404747272587
20
-27.342742427909215
10
-95.714880911748168
20
-25.786141994118861
10
-80.155061477162633
20
-28.56330611223833
10
-80.15462779905269
20
-38.134404300657884
42
0.41058661247536155
10
-71.35464353252371
20
-46.938153700580791
10
-58.577498175258441
20
-46.938153700580784
10
-57.739007263745926
20
-49.103047803783745
42
0.23409048657034071
10
-51.875816012252344
20
-54.367893993282721
10
-25.664237994355553
20
-61.385915451513739
10
25.664237994355581
20
-61.385915451513739
10
51.875816012258994
20
-54.367893993280475
42
0.23409048657213904
10
57.739007263770581
20
-49.103047803720862
10
58.577498175258441
20
-46.93815370058077
10
71.354643532524307
20
-46.93815370058077
42
0.41058661247536282
10
80.15462779905269
20
-38.134404300657238
10
80.155061477162633
20
-28.56330611223833
10
95.714880911748168
20
-25.786141994118861
10
103.05404747283646
20
-27.342742427931842
42
0.09283532260041287
10
106.73755103217732
20
-27.404560883770198
0
ENDSEC
0
SECTION
2
OBJECTS
0
DICTIONARY
5
C
100
AcDbDictionary
3
ACAD_GROUP
350
D
3
ACAD_MLINESTYLE
350
17
0
DICTIONARY
5
D
100
AcDbDictionary
0
DICTIONARY
5
1A
330
C
100
AcDbDictionary
0
DICTIONARY
5
17
100
AcDbDictionary
0
ENDSEC
0
EOF
