0
SECTION
2
HEADER
9
$INSUNITS
70
4
9
$ACADVER
1
AC1014
9
$HANDSEED
5
FFFF
0
ENDSEC
0
SECTION
2
TABLES
0
TABLE
2
VPORT
5
8
100
AcDbSymbolTable
0
ENDTAB
0
TABLE
2
LTYPE
5
5
100
AcDbSymbolTable
0
LTYPE
5
14
100
AcDbSymbolTableRecord
100
AcDbLinetypeTableRecord
2
BYBLOCK
70
0
0
LTYPE
5
15
100
AcDbSymbolTableRecord
100
AcDbLinetypeTableRecord
2
BYLAYER
70
0
0
ENDTAB
0
TABLE
2
LAYER
5
2
100
AcDbSymbolTable
70
2
0
LAYER
5
50
100
AcDbSymbolTableRecord
100
AcDbLayerTableRecord
2
0
70
0
6
CONTINUOUS
0
ENDTAB
0
TABLE
2
STYLE
5
3
100
AcDbSymbolTable
70
1
0
STYLE
5
11
100
AcDbSymbolTableRecord
100
AcDbTextStyleTableRecord
2
STANDARD
70
0
0
ENDTAB
0
TABLE
2
VIEW
5
6
100
AcDbSymbolTable
70
0
0
ENDTAB
0
TABLE
2
UCS
5
7
100
AcDbSymbolTable
70
0
0
ENDTAB
0
TABLE
2
APPID
5
9
100
AcDbSymbolTable
70
2
0
APPID
5
12
100
AcDbSymbolTableRecord
100
AcDbRegAppTableRecord
2
ACAD
70
0
0
ENDTAB
0
TABLE
2
DIMSTYLE
5
A
100
AcDbSymbolTable
70
1
0
ENDTAB
0
TABLE
2
BLOCK_RECORD
5
1
100
AcDbSymbolTable
70
1
0
BLOCK_RECORD
5
1F
100
AcDbSymbolTableRecord
100
AcDbBlockTableRecord
2
*MODEL_SPACE
0
BLOCK_RECORD
5
1B
100
AcDbSymbolTableRecord
100
AcDbBlockTableRecord
2
*PAPER_SPACE
0
ENDTAB
0
ENDSEC
0
SECTION
2
BLOCKS
0
BLOCK
5
20
100
AcDbEntity
100
AcDbBlockBegin
2
*MODEL_SPACE
0
ENDBLK
5
21
100
AcDbEntity
100
AcDbBlockEnd
0
BLOCK
5
1C
100
AcDbEntity
100
AcDbBlockBegin
2
*PAPER_SPACE
0
ENDBLK
5
1D
100
AcDbEntity
100
AcDbBlockEnd
0
ENDSEC
0
SECTION
2
ENTITIES
0
CIRCLE
5
100
100
AcDbEntity
8
0
100
AcDbCircle
10
-10.642136216766318
20
57.145923713118279
30
0
40
1.875
210
0
220
-0
230
1
0
CIRCLE
5
101
100
AcDbEntity
8
0
100
AcDbCircle
10
-129.48835840242435
20
-17.475390644221509
30
0
40
1.875
210
0
220
-0
230
1
0
CIRCLE
5
102
100
AcDbEntity
8
0
100
AcDbCircle
10
-76.480394089200161
20
-25.486574081055213
30
0
40
1.875
210
0
220
-0
230
1
0
CIRCLE
5
103
100
AcDbEntity
8
0
100
AcDbCircle
10
-64.02756039067107
20
49.164892108571024
30
0
40
1.875
210
0
220
-0
230
1
0
CIRCLE
5
104
100
AcDbEntity
8
0
100
AcDbCircle
10
129.48835840242435
20
-17.475390644221513
30
0
40
1.875
210
0
220
-0
230
1
0
CIRCLE
5
105
100
AcDbEntity
8
0
100
AcDbCircle
10
118.45606375537866
20
47.503011416751079
30
0
40
1.875
210
0
220
-0
230
1
0
CIRCLE
5
106
100
AcDbEntity
8
0
100
AcDbCircle
10
52.918370820335092
20
-49.631363515586898
30
0
40
1.875
210
0
220
-0
230
1
0
CIRCLE
5
107
100
AcDbEntity
8
0
100
AcDbCircle
10
34.989308928601858
20
49.164892073715833
30
0
40
1.875
210
0
220
-0
230
1
0
CIRCLE
5
108
100
AcDbEntity
8
0
100
AcDbCircle
10
76.480394089200161
20
-25.486574081055203
30
0
40
1.875
210
0
220
-0
230
1
0
CIRCLE
5
109
100
AcDbEntity
8
0
100
AcDbCircle
10
-52.918370820335092
20
-49.631363515586898
30
0
40
1.875
210
0
220
-0
230
1
0
CIRCLE
5
110
100
AcDbEntity
8
0
100
AcDbCircle
10
-118.45606375537866
20
47.503011416751079
30
0
40
1.875
210
0
220
-0
230
1
0
LWPOLYLINE
5
111
100
AcDbEntity
8
0
100
AcDbPolyline
90
36
70
1
43
0.0
10
35.314779857154647
20
52.914892073715833
10
-12.415108424184215
20
61.262945643024466
42
0.41023500131174134
10
-22.599232610521032
20
54.118692036210199
10
-23.022046766622751
20
51.720159596948754
10
-24.1553842884069
20
45.292279184842421
10
-27.680207357475023
20
45.920313384487955
42
0.20034537403995067
10
-33.416923745742821
20
49.611831367627552
10
-52.058702508334669
20
52.914892073715833
10
-113.89290761363922
20
52.914892433857844
42
0.36387266830052456
10
-124.57684801483489
20
43.949822309236751
10
-134.37968258833351
20
-11.635384580448456
42
0.40758327845621539
10
-125.6727973833903
20
-24.06877497042078
10
-106.73755103235807
20
-27.404560883739482
42
0.09283532260787776
10
-103.05404747272587
20
-27.342742427909215
10
-95.714880911748168
20
-25.786141994118861
10
-80.155061477162633
20
-28.56330611223834
10
-80.15462779905269
20
-38.134404300657877
42
0.41058661247536182
10
-71.35464353252371
20
-46.938153700580791
10
-58.577498175258441
20
-46.93815370058077
10
-57.739007263745918
20
-49.103047803783738
42
0.2340904865703409
10
-51.875816012252344
20
-54.367893993282721
10
-25.664237994355553
20
-61.385915451513725
10
25.664237994355581
20
-61.385915451513725
10
51.875816012258994
20
-54.367893993280475
42
0.23409048657213904
10
57.739007263770581
20
-49.103047803720862
10
58.577498175258441
20
-46.93815370058077
10
71.354643532524307
20
-46.93815370058077
42
0.41058661247536282
10
80.15462779905269
20
-38.134404300657238
10
80.155061477162633
20
-28.56330611223834
10
95.714880911748168
20
-25.786141994118861
10
103.05404747283646
20
-27.342742427931839
42
0.092835322600412967
10
106.73755103217732
20
-27.404560883770198
10
125.67279738339032
20
-24.068774970420765
42
0.4075832784524977
10
134.37968258835599
20
-11.635384580585054
10
124.5768480148331
20
43.949822309246983
42
0.36381904883610777
10
113.89496284910467
20
52.914891864800452
0
LWPOLYLINE
5
112
100
AcDbEntity
8
0
100
AcDbPolyline
90
45
70
1
43
0.0
10
-13.673851689139802
20
53.869251333126655
10
34.663838000049054
20
45.414892073715833
10
113.89283355015991
20
45.414892073715833
42
-0.36374355254049479
10
117.19096047481577
20
42.646493714165388
10
126.98409866842564
20
-12.883731755691022
42
-0.40226919762198016
10
124.31722759033589
20
-16.692090364495318
10
105.46596117117176
20
-20.013081694816044
42
-0.089540171676138022
10
104.57554095199973
20
-19.998608109143451
10
96.142734858207803
20
-18.210052213239443
42
0.093481573181897398
10
95.521289573305864
20
-18.202170546158285
10
73.190400311200108
20
-22.187855897144591
42
0.36611650389258515
10
72.655321355424064
20
-22.82772943919479
10
72.654629257608903
20
-38.102044661877358
42
-0.40498604378740766
10
71.320073674357985
20
-39.438153700580784
10
53.884671111168814
20
-39.43815370058077
42
0.30972559185268228
10
53.278613573353553
20
-39.853417206966448
10
50.764095640042555
20
-46.345634321648092
42
-0.22604100441498448
10
49.883179200919642
20
-47.137237414061303
10
24.677570761398329
20
-53.885915451513725
10
-24.677570761398329
20
-53.885915451513725
10
-49.883179200919734
20
-47.137237414061673
42
-0.22604100441498717
10
-50.76409564004291
20
-46.345634321648241
10
-53.278613573353546
20
-39.853417206966441
42
0.30972559185268023
10
-53.884671111168814
20
-39.438153700580784
10
-71.320073674357985
20
-39.438153700580791
42
-0.40498604378740577
10
-72.654629257608903
20
-38.102044661877372
10
-72.655321355424064
20
-22.827729439194808
42
0.36611650389259137
10
-73.190400311200108
20
-22.187855897144591
10
-95.521289573305864
20
-18.202170546158285
42
0.093481573181897148
10
-96.142734858207803
20
-18.210052213239443
10
-104.57554095199973
20
-19.998608109143465
42
-0.089540171676137592
10
-105.46596117117176
20
-20.013081694816059
10
-124.31722759033589
20
-16.692090364495314
42
-0.4022691976219791
10
-126.98409866842564
20
-12.883731755691032
10
-117.19096047481577
20
42.646493714165388
42
-0.36374355254049479
10
-113.89283355015991
20
45.414892073715833
10
-52.718014498331058
20
45.414892073715833
10
-34.731609811367434
20
42.227956601422107
42
-0.25058892712524694
10
-33.728978900388874
20
41.436708201363189
10
-32.894813694224595
20
39.517092983838722
42
0.23505832484663797
10
-32.429436873362214
20
39.14838762639431
10
-18.714550246522776
20
36.704742178909846
42
0.41916494765767909
10
-17.960874172950426
20
37.231888482048141
10
-15.635952178187154
20
50.418004941236774
10
-15.218705758516514
20
52.784952826741176
42
-0.404675652657494
0
ENDSEC
0
SECTION
2
OBJECTS
0
DICTIONARY
5
C
100
AcDbDictionary
3
ACAD_GROUP
350
D
3
ACAD_MLINESTYLE
350
17
0
DICTIONARY
5
D
100
AcDbDictionary
0
DICTIONARY
5
1A
330
C
100
AcDbDictionary
0
DICTIONARY
5
17
100
AcDbDictionary
0
ENDSEC
0
EOF
