0
SECTION
2
HEADER
9
$INSUNITS
70
4
9
$ACADVER
1
AC1014
9
$HANDSEED
5
FFFF
0
ENDSEC
0
SECTION
2
TABLES
0
TABLE
2
VPORT
5
8
100
AcDbSymbolTable
0
ENDTAB
0
TABLE
2
LTYPE
5
5
100
AcDbSymbolTable
0
LTYPE
5
14
100
AcDbSymbolTableRecord
100
AcDbLinetypeTableRecord
2
BYBLOCK
70
0
0
LTYPE
5
15
100
AcDbSymbolTableRecord
100
AcDbLinetypeTableRecord
2
BYLAYER
70
0
0
ENDTAB
0
TABLE
2
LAYER
5
2
100
AcDbSymbolTable
70
2
0
LAYER
5
50
100
AcDbSymbolTableRecord
100
AcDbLayerTableRecord
2
0
70
0
6
CONTINUOUS
0
ENDTAB
0
TABLE
2
STYLE
5
3
100
AcDbSymbolTable
70
1
0
STYLE
5
11
100
AcDbSymbolTableRecord
100
AcDbTextStyleTableRecord
2
STANDARD
70
0
0
ENDTAB
0
TABLE
2
VIEW
5
6
100
AcDbSymbolTable
70
0
0
ENDTAB
0
TABLE
2
UCS
5
7
100
AcDbSymbolTable
70
0
0
ENDTAB
0
TABLE
2
APPID
5
9
100
AcDbSymbolTable
70
2
0
APPID
5
12
100
AcDbSymbolTableRecord
100
AcDbRegAppTableRecord
2
ACAD
70
0
0
ENDTAB
0
TABLE
2
DIMSTYLE
5
A
100
AcDbSymbolTable
70
1
0
ENDTAB
0
TABLE
2
BLOCK_RECORD
5
1
100
AcDbSymbolTable
70
1
0
BLOCK_RECORD
5
1F
100
AcDbSymbolTableRecord
100
AcDbBlockTableRecord
2
*MODEL_SPACE
0
BLOCK_RECORD
5
1B
100
AcDbSymbolTableRecord
100
AcDbBlockTableRecord
2
*PAPER_SPACE
0
ENDTAB
0
ENDSEC
0
SECTION
2
BLOCKS
0
BLOCK
5
20
100
AcDbEntity
100
AcDbBlockBegin
2
*MODEL_SPACE
0
ENDBLK
5
21
100
AcDbEntity
100
AcDbBlockEnd
0
BLOCK
5
1C
100
AcDbEntity
100
AcDbBlockBegin
2
*PAPER_SPACE
0
ENDBLK
5
1D
100
AcDbEntity
100
AcDbBlockEnd
0
ENDSEC
0
SECTION
2
ENTITIES
0
CIRCLE
5
100
100
AcDbEntity
8
0
100
AcDbCircle
10
-10.642136216766318
20
57.145923713118279
30
0
40
1.875
210
0
220
-0
230
1
0
CIRCLE
5
101
100
AcDbEntity
8
0
100
AcDbCircle
10
-129.48835840242435
20
-17.475390644221509
30
0
40
1.875
210
0
220
-0
230
1
0
CIRCLE
5
102
100
AcDbEntity
8
0
100
AcDbCircle
10
-76.480394089200161
20
-25.486574081055213
30
0
40
1.875
210
0
220
-0
230
1
0
CIRCLE
5
103
100
AcDbEntity
8
0
100
AcDbCircle
10
-64.02756039067107
20
49.164892108571024
30
0
40
1.875
210
0
220
-0
230
1
0
CIRCLE
5
104
100
AcDbEntity
8
0
100
AcDbCircle
10
129.48835840242435
20
-17.475390644221513
30
0
40
1.875
210
0
220
-0
230
1
0
CIRCLE
5
105
100
AcDbEntity
8
0
100
AcDbCircle
10
118.45606375537866
20
47.503011416751079
30
0
40
1.875
210
0
220
-0
230
1
0
CIRCLE
5
106
100
AcDbEntity
8
0
100
AcDbCircle
10
52.918370820335092
20
-49.631363515586898
30
0
40
1.875
210
0
220
-0
230
1
0
CIRCLE
5
107
100
AcDbEntity
8
0
100
AcDbCircle
10
34.989308928601858
20
49.164892073715833
30
0
40
1.875
210
0
220
-0
230
1
0
CIRCLE
5
108
100
AcDbEntity
8
0
100
AcDbCircle
10
76.480394089200161
20
-25.486574081055203
30
0
40
1.875
210
0
220
-0
230
1
0
CIRCLE
5
109
100
AcDbEntity
8
0
100
AcDbCircle
10
-52.918370820335092
20
-49.631363515586898
30
0
40
1.875
210
0
220
-0
230
1
0
CIRCLE
5
110
100
AcDbEntity
8
0
100
AcDbCircle
10
-118.45606375537866
20
47.503011416751079
30
0
40
1.875
210
0
220
-0
230
1
0
LWPOLYLINE
5
111
100
AcDbEntity
8
0
100
AcDbPolyline
90
70
70
1
43
0.0
10
-113.89283355015991
20
45.414892073715833
42
0.36374355254049479
10
-117.19096047481577
20
42.646493714165388
10
-126.98409866842564
20
-12.883731755691032
42
0.4022691976219791
10
-124.31722759033589
20
-16.692090364495307
10
-105.46596117117176
20
-20.013081694816059
42
0.089540171676137703
10
-104.57554095199973
20
-19.998608109143461
10
-96.142734858207803
20
-18.210052213239447
42
-0.093481573181897162
10
-95.521289573305864
20
-18.202170546158285
10
-73.190400311200108
20
-22.187855897144591
42
-0.36611650389258737
10
-72.655321355424064
20
-22.827729439194798
10
-72.654629257608903
20
-38.102044661877372
42
0.40498604378740582
10
-71.320073674357985
20
-39.438153700580791
10
-53.884671111168814
20
-39.438153700580791
42
-0.30972559185268583
10
-53.278613573353553
20
-39.853417206966455
10
-50.76409564004291
20
-46.345634321648241
42
0.22604100441498615
10
-49.883179200919734
20
-47.137237414061666
10
-24.677570761398329
20
-53.885915451513746
10
24.677570761398329
20
-53.885915451513746
10
49.883179200919642
20
-47.137237414061303
42
0.22604100441498132
10
50.764095640042569
20
-46.345634321648106
10
53.278613573353553
20
-39.853417206966448
42
-0.30972559185268983
10
53.884671111168828
20
-39.438153700580791
10
71.320073674357985
20
-39.438153700580784
42
0.4049860437874076
10
72.654629257608875
20
-38.102044661877358
10
72.655321355424064
20
-22.82772943919479
42
-0.36611650389259348
10
73.190400311200122
20
-22.18785589714458
10
95.521289573305864
20
-18.202170546158285
42
-0.093481573181897398
10
96.142734858207803
20
-18.210052213239443
10
104.57554095199973
20
-19.998608109143451
42
0.089540171676140118
10
105.46596117117177
20
-20.013081694816044
10
124.31722759033589
20
-16.692090364495318
42
0.40226919762198038
10
126.98409866842562
20
-12.883731755691024
10
117.19096047481577
20
42.646493714165388
42
0.36374355254049329
10
113.89283355015992
20
45.414892073715833
10
34.663838000049054
20
45.414892073715833
10
-13.673851689139802
20
53.869251333126655
10
-14.98676670517014
20
54.10069246164732
10
-13.702851979333525
20
61.384060519986349
42
-0.036557630620603472
10
-12.415108424184211
20
61.262945643024466
10
35.314779857154655
20
52.914892073715833
10
113.89496284910467
20
52.914891864800481
42
-0.36381904883610783
10
124.57684801483312
20
43.949822309246983
10
134.37968258835599
20
-11.635384580585054
42
-0.40758327845249714
10
125.67279738339033
20
-24.068774970420776
10
106.73755103217732
20
-27.404560883770195
42
-0.092835322600412662
10
103.05404747283647
20
-27.342742427931839
10
95.714880911748153
20
-25.786141994118861
10
80.155061477162604
20
-28.56330611223833
10
80.15462779905269
20
-38.134404300657238
42
-0.41058661247536221
10
71.354643532524321
20
-46.93815370058077
10
58.577498175258441
20
-46.93815370058077
10
57.739007263770581
20
-49.103047803720855
42
-0.23409048657213904
10
51.875816012258994
20
-54.367893993280475
10
25.664237994355581
20
-61.385915451513746
10
-25.664237994355563
20
-61.385915451513746
10
-51.875816012252344
20
-54.367893993282728
42
-0.23409048657034054
10
-57.739007263745926
20
-49.103047803783753
10
-58.577498175258441
20
-46.938153700580791
10
-71.35464353252371
20
-46.938153700580784
42
-0.41058661247536116
10
-80.15462779905269
20
-38.134404300657891
10
-80.155061477162633
20
-28.56330611223833
10
-95.714880911748168
20
-25.786141994118861
10
-103.05404747272587
20
-27.342742427909212
42
-0.092835322607877663
10
-106.73755103235807
20
-27.404560883739492
10
-125.6727973833903
20
-24.068774970420783
42
-0.40758327845621539
10
-134.37968258833351
20
-11.635384580448456
10
-124.57684801483489
20
43.949822309236751
42
-0.36387266830052456
10
-113.89290761363922
20
52.914892433857844
10
-60.277560333974691
20
52.914892121585069
10
-60.277560377657068
20
45.414892073715833
0
ENDSEC
0
SECTION
2
OBJECTS
0
DICTIONARY
5
C
100
AcDbDictionary
3
ACAD_GROUP
350
D
3
ACAD_MLINESTYLE
350
17
0
DICTIONARY
5
D
100
AcDbDictionary
0
DICTIONARY
5
1A
330
C
100
AcDbDictionary
0
DICTIONARY
5
17
100
AcDbDictionary
0
ENDSEC
0
EOF
